# File produced by Open Asset Import Library (http://www.assimp.sf.net)
# (assimp v3.1.68452469)

mtllib ciclestand.mtl

# 96 vertex positions
v  22.1527 365.341 -53.4813
v  25.6098 220.15 -61.8276
v  7.84725e-08 220.15 -66.9217
v  1.75904e-08 365.341 -57.8878
v  -40.9328 365.341 40.9327
v  -47.3208 220.15 47.3207
v  -25.6098 220.15 61.8275
v  -22.1527 365.341 53.4812
v  40.9328 365.341 -40.9328
v  47.3208 220.15 -47.3208
v  57.8877 365.341 -5.92593e-05
v  66.9217 220.15 -3.54475e-05
v  61.8276 220.15 -25.6099
v  53.4813 365.341 -22.1527
v  -53.4813 365.341 22.1526
v  -61.8276 220.15 25.6098
v  61.8276 220.15 25.6098
v  53.4813 365.341 22.1526
v  -22.1527 365.341 -53.4813
v  -25.6098 220.15 -61.8276
v  22.1527 365.341 53.4812
v  25.6098 220.15 61.8275
v  7.84725e-08 220.15 66.9216
v  1.75904e-08 365.341 57.8876
v  -40.9328 365.341 -40.9328
v  -47.3208 220.15 -47.3208
v  40.9328 365.341 40.9327
v  47.3208 220.15 47.3207
v  -53.4813 365.341 -22.1527
v  -61.8276 220.15 -25.6099
v  -57.8877 365.341 -5.92593e-05
v  -66.9217 220.15 -3.54475e-05
v  -28.2409 148.061 68.1795
v  -31.699 53.3102 76.5282
v  1.85707e-07 53.3102 82.8336
v  1.24807e-07 148.061 73.7969
v  -30.7226 155.269 74.1708
v  2.06486e-07 155.269 80.2819
v  -28.6187 212.914 69.0915
v  1.69435e-07 212.914 74.7841
v  -73.7969 148.061 -2.35831e-05
v  -82.8336 53.3102 -7.98893e-06
v  -76.5282 53.3102 31.699
v  -68.1795 148.061 28.2408
v  -80.282 155.269 -2.47045e-05
v  -74.1709 155.269 30.7226
v  -74.7842 212.914 -3.41918e-05
v  -69.0916 212.914 28.6186
v  -76.5282 53.3102 -31.699
v  -68.1795 148.061 -28.2409
v  -74.1709 155.269 -30.7226
v  -69.0916 212.914 -28.6187
v  68.1795 148.061 28.2408
v  76.5282 53.3102 31.699
v  58.5722 53.3102 58.5722
v  52.1823 148.061 52.1823
v  74.1708 155.269 30.7226
v  56.7679 155.269 56.7679
v  69.0916 212.914 28.6186
v  52.8804 212.914 52.8804
v  -58.5722 53.3102 -58.5722
v  -52.1823 148.061 -52.1823
v  -56.7679 155.269 -56.7679
v  -52.8804 212.914 -52.8804
v  31.699 53.3102 76.5282
v  28.2409 148.061 68.1795
v  30.7226 155.269 74.1708
v  28.6187 212.914 69.0916
v  -31.699 53.3102 -76.5282
v  -28.2409 148.061 -68.1795
v  -30.7226 155.269 -74.1709
v  -28.6187 212.914 -69.0916
v  1.85707e-07 53.3102 -82.8336
v  1.24807e-07 148.061 -73.797
v  2.06486e-07 155.269 -80.282
v  1.69435e-07 212.914 -74.7842
v  73.7969 148.061 -2.35831e-05
v  82.8336 53.3102 -7.98893e-06
v  80.282 155.269 -2.47045e-05
v  74.7842 212.914 -3.41918e-05
v  68.1795 148.061 -28.2409
v  76.5282 53.3102 -31.699
v  58.5722 53.3102 -58.5722
v  52.1823 148.061 -52.1823
v  74.1708 155.269 -30.7226
v  56.7679 155.269 -56.7679
v  69.0916 212.914 -28.6187
v  52.8804 212.914 -52.8804
v  -58.5722 53.3102 58.5722
v  -52.1823 148.061 52.1823
v  -56.7679 155.269 56.7679
v  -52.8804 212.914 52.8804
v  31.699 53.3102 -76.5282
v  28.2409 148.061 -68.1795
v  30.7226 155.269 -74.1709
v  28.6187 212.914 -69.0916

# 102 UV coordinates
vt 0.409983 0.637569 0
vt 0.392503 0.338254 0
vt 0.445594 0.335454 0
vt 0.45465 0.635532 0
vt 0.722441 0.652079 0
vt 0.769055 0.354953 0
vt 0.822535 0.363609 0
vt 0.766609 0.659599 0
vt 0.365381 0.640989 0
vt 0.338871 0.342262 0
vt 0.276519 0.651912 0
vt 0.230644 0.355887 0
vt 0.285065 0.347935 0
vt 0.320873 0.645771 0
vt 0.678046 0.645938 0
vt 0.7153 0.348107 0
vt 0.17616 0.364024 0
vt 0.232367 0.659425 0
vt 0.499362 0.634891 0
vt 0.498719 0.335214 0
vt 0.854057 0.67882 0
vt 0.927201 0.389508 0
vt 0.875437 0.374176 0
vt 0.810498 0.668517 0
vt 0.544094 0.63563 0
vt 0.552371 0.336134 0
vt 0.188503 0.668324 0
vt 0.123111 0.374686 0
vt 0.0723594 0.389171 0
vt 0.143403 0.678814 0
vt 0.58882 0.637723 0
vt 0.606203 0.338669 0
vt 0.633485 0.641161 0
vt 0.660705 0.34338 0
vt 0.845357 0.218919 0
vt 0.873934 0.0280863 0
vt 0.93601 0.0375156 0
vt 0.904302 0.227864 0
vt 0.842408 0.237711 0
vt 0.901374 0.247484 0
vt 0.82646 0.342942 0
vt 0.880409 0.354164 0
vt 0.672753 0.199128 0
vt 0.687279 0.00799112 0
vt 0.749481 0.0133437 0
vt 0.729634 0.203984 0
vt 0.67136 0.216305 0
vt 0.727558 0.222304 0
vt 0.66261 0.321223 0
vt 0.71782 0.327051 0
vt 0.625006 0.0039343 0
vt 0.615968 0.19482 0
vt 0.615073 0.213145 0
vt 0.607322 0.317577 0
vt 0.153256 0.219163 0
vt 0.12449 0.0279454 0
vt 0.0621914 0.0373307 0
vt 0.094598 0.228273 0
vt 0.156247 0.237718 0
vt 0.097703 0.247785 0
vt 0.172217 0.343095 0
vt 0.117937 0.354603 0
vt 0.562491 0.00123084 0
vt 0.558396 0.192327 0
vt 0.557946 0.21086 0
vt 0.552835 0.315266 0
vt 8.23788e-05 0.04805 0
vt 0.0351174 0.236288 0
vt 0.0352289 0.257094 0
vt 0.0637317 0.370487 0
vt 0.499761 8.23788e-05 0
vt 0.500541 0.191287 0
vt 0.500552 0.21005 0
vt 0.498562 0.314558 0
vt 0.962254 0.236661 0
vt 0.999918 0.0491233 0
vt 0.96197 0.255492 0
vt 0.936603 0.369172 0
vt 0.436916 0.000600467 0
vt 0.441646 0.191198 0
vt 0.442173 0.211123 0
vt 0.445043 0.315915 0
vt 0.210451 0.211407 0
vt 0.186723 0.0197998 0
vt 0.212749 0.228653 0
vt 0.227404 0.33375 0
vt 0.267311 0.204081 0
vt 0.248968 0.0128997 0
vt 0.311424 0.00726675 0
vt 0.324925 0.198523 0
vt 0.269182 0.222437 0
vt 0.326357 0.21707 0
vt 0.282725 0.326838 0
vt 0.337216 0.321388 0
vt 0.811723 0.0200142 0
vt 0.787307 0.210743 0
vt 0.784765 0.2293 0
vt 0.772236 0.334135 0
vt 0.374098 0.00312047 0
vt 0.38279 0.194409 0
vt 0.383771 0.213178 0
vt 0.391491 0.317589 0

# 153 vertex normals
vn 0.381945 0.062101 -0.922096
vn 0.381945 0.062101 -0.922096
vn 0.194728 0.0609122 -0.978964
vn -0.705742 0.0621013 0.705742
vn -0.705742 0.0621013 0.705742
vn -0.381945 0.0621013 0.922096
vn -0.381945 0.0621013 0.922096
vn 0.705742 0.062101 -0.705742
vn 0.705742 0.062101 -0.705742
vn 0.978964 0.0609123 -0.194728
vn 0.922096 0.0621011 -0.381945
vn 0.922096 0.0621011 -0.381945
vn -0.922096 0.0621012 0.381945
vn -0.922096 0.0621012 0.381945
vn -0.978964 -0.0609124 -0.194728
vn -0.922096 -0.0621012 -0.381945
vn -0.922096 -0.0621012 -0.381945
vn 0.381945 -0.062101 0.922096
vn 0.381945 -0.062101 0.922096
vn 0.194728 -0.0609122 0.978964
vn -0.381945 -0.0621013 -0.922096
vn -0.381945 -0.0621013 -0.922096
vn -0.194728 -0.0609125 -0.978964
vn 0.705742 -0.062101 0.705742
vn 0.705742 -0.062101 0.705742
vn -0.705742 -0.0621013 -0.705742
vn -0.705742 -0.0621013 -0.705742
vn 0.922096 -0.0621011 0.381945
vn 0.922096 -0.0621011 0.381945
vn 0.978964 -0.0609123 0.194728
vn -0.978964 0.0609124 0.194728
vn -0.194728 0.0609125 0.978964
vn -0.380955 0.0949417 0.919706
vn -0.380955 0.0949417 0.919706
vn -0.194242 0.0931334 0.976522
vn -0.284485 -0.668854 0.686807
vn -0.284485 -0.668854 0.686806
vn -0.14628 -0.661659 0.735398
vn -0.380955 0.0949417 0.919706
vn -0.380955 0.0949417 0.919706
vn -0.194242 0.0931335 0.976522
vn -0.25914 0.735831 0.625619
vn -0.25914 0.735831 0.625619
vn -0.133491 0.729245 0.671105
vn -0.976522 0.0931332 0.194242
vn -0.919706 0.0949416 0.380955
vn -0.919706 0.0949416 0.380955
vn -0.735398 -0.661659 0.14628
vn -0.686806 -0.668854 0.284485
vn -0.686806 -0.668854 0.284485
vn -0.976522 0.0931332 0.194243
vn -0.919706 0.0949416 0.380955
vn -0.919706 0.0949416 0.380955
vn -0.671105 0.729245 0.133491
vn -0.62562 0.735831 0.25914
vn -0.62562 0.735831 0.25914
vn 0.976522 -0.0931332 0.194242
vn 0.919706 -0.0949415 0.380955
vn 0.919706 -0.0949414 0.380955
vn 0.735398 0.661659 0.146279
vn 0.686806 0.668854 0.284485
vn 0.686806 0.668854 0.284485
vn 0.976522 -0.0931332 0.194243
vn 0.919706 -0.0949414 0.380955
vn 0.919706 -0.0949414 0.380955
vn 0.671105 -0.729245 0.133491
vn 0.62562 -0.73583 0.25914
vn 0.62562 -0.735831 0.25914
vn -0.919706 -0.0949416 -0.380955
vn -0.919706 -0.0949416 -0.380955
vn -0.703913 -0.0949416 -0.703913
vn -0.703913 -0.0949416 -0.703913
vn -0.686807 0.668853 -0.284485
vn -0.686807 0.668853 -0.284485
vn -0.525659 0.668854 -0.525659
vn -0.525659 0.668854 -0.525659
vn -0.919706 -0.0949416 -0.380955
vn -0.919706 -0.0949416 -0.380955
vn -0.703913 -0.0949416 -0.703913
vn -0.703913 -0.0949416 -0.703913
vn -0.62562 -0.73583 -0.25914
vn -0.62562 -0.73583 -0.25914
vn -0.478829 -0.735831 -0.478828
vn -0.478829 -0.735831 -0.478828
vn 0.703913 -0.0949414 0.703913
vn 0.525658 0.668854 0.525659
vn 0.703913 -0.0949413 0.703913
vn 0.703913 -0.0949413 0.703913
vn 0.478829 -0.73583 0.478829
vn 0.478829 -0.73583 0.478829
vn -0.380955 -0.0949417 -0.919706
vn -0.380955 -0.0949417 -0.919706
vn -0.284484 0.668854 -0.686807
vn -0.284484 0.668854 -0.686807
vn -0.380955 -0.0949416 -0.919706
vn -0.380955 -0.0949416 -0.919706
vn -0.25914 -0.735831 -0.625619
vn -0.25914 -0.735831 -0.625619
vn 0.380955 -0.0949414 0.919706
vn 0.380955 -0.0949414 0.919706
vn 0.284484 0.668854 0.686806
vn 0.284484 0.668854 0.686806
vn 0.380955 -0.0949413 0.919706
vn 0.25914 -0.735831 0.625619
vn 0.25914 -0.735831 0.625619
vn -0.194242 -0.0931334 -0.976522
vn -0.146279 0.661659 -0.735398
vn -0.194242 -0.0931333 -0.976522
vn -0.133491 -0.729245 -0.671105
vn 0.194242 -0.0931331 0.976522
vn 0.146279 0.661659 0.735397
vn 0.194242 -0.093133 0.976522
vn 0.133491 -0.729245 0.671105
vn -0.976522 -0.0931333 -0.194242
vn -0.735398 0.661659 -0.14628
vn -0.976522 -0.0931332 -0.194243
vn -0.671105 -0.729245 -0.133491
vn 0.919706 0.0949415 -0.380955
vn 0.919706 0.0949415 -0.380955
vn 0.703913 0.0949414 -0.703913
vn 0.703913 0.0949414 -0.703913
vn 0.686807 -0.668853 -0.284484
vn 0.686807 -0.668853 -0.284484
vn 0.525659 -0.668854 -0.525659
vn 0.525659 -0.668854 -0.525659
vn 0.919706 0.0949415 -0.380955
vn 0.919706 0.0949415 -0.380955
vn 0.703913 0.0949414 -0.703913
vn 0.703913 0.0949414 -0.703913
vn 0.62562 0.73583 -0.25914
vn 0.478829 0.73583 -0.478829
vn 0.478829 0.73583 -0.478829
vn -0.703913 0.0949416 0.703913
vn -0.703913 0.0949416 0.703913
vn -0.525659 -0.668854 0.525659
vn -0.525659 -0.668854 0.525659
vn -0.703913 0.0949416 0.703913
vn -0.478829 0.735831 0.478828
vn 0.976522 0.0931332 -0.194242
vn 0.735398 -0.661659 -0.14628
vn 0.976522 0.0931332 -0.194243
vn 0.671105 0.729245 -0.133491
vn 0.380955 0.0949414 -0.919706
vn 0.380955 0.0949414 -0.919706
vn 0.284484 -0.668854 -0.686806
vn 0.284484 -0.668854 -0.686806
vn 0.380955 0.0949413 -0.919706
vn 0.25914 0.735831 -0.625619
vn 0.25914 0.735831 -0.625619
vn 0.194242 0.0931331 -0.976522
vn 0.146279 -0.661659 -0.735397
vn 0.194242 0.093133 -0.976522
vn 0.133491 0.729245 -0.671105

# Mesh 'Cube.006_Cube.006' with 160 faces
g Cube.006_Cube.006
usemtl DefaultMaterial
f  1/1/1 2/2/2 3/3/3
f  3/3/3 4/4/3 1/1/1
f  5/5/4 6/6/5 7/7/6
f  7/7/6 8/8/7 5/5/4
f  9/9/8 10/10/9 2/2/2
f  2/2/2 1/1/1 9/9/8
f  11/11/10 12/12/10 13/13/11
f  13/13/11 14/14/12 11/11/10
f  15/15/13 16/16/14 6/6/5
f  6/6/5 5/5/4 15/15/13
f  14/14/12 13/13/11 10/10/9
f  10/10/9 9/9/8 14/14/12
f  11/11/15 12/12/15 17/17/16
f  17/17/16 18/18/17 11/11/15
f  19/19/18 20/20/19 3/3/20
f  3/3/20 4/4/20 19/19/18
f  21/21/21 22/22/22 23/23/23
f  23/23/23 24/24/23 21/21/21
f  25/25/24 26/26/25 20/20/19
f  20/20/19 19/19/18 25/25/24
f  27/27/26 28/28/27 22/29/22
f  22/29/22 21/30/21 27/27/26
f  29/31/28 30/32/29 26/26/25
f  26/26/25 25/25/24 29/31/28
f  18/18/17 17/17/16 28/28/27
f  28/28/27 27/27/26 18/18/17
f  31/33/30 32/34/30 30/32/29
f  30/32/29 29/31/28 31/33/30
f  31/33/31 32/34/31 16/16/14
f  16/16/14 15/15/13 31/33/31
f  8/8/7 7/7/6 23/23/32
f  23/23/32 24/24/32 8/8/7
f  33/35/33 34/36/34 35/37/35
f  35/37/35 36/38/35 33/35/33
f  37/39/36 33/35/37 36/38/38
f  36/38/38 38/40/38 37/39/36
f  39/41/39 37/39/40 38/40/41
f  38/40/41 40/42/41 39/41/39
f  7/7/42 39/41/43 40/42/44
f  40/42/44 23/23/44 7/7/42
f  41/43/45 42/44/45 43/45/46
f  43/45/46 44/46/47 41/43/45
f  45/47/48 41/43/48 44/46/49
f  44/46/49 46/48/50 45/47/48
f  47/49/51 45/47/51 46/48/52
f  46/48/52 48/50/53 47/49/51
f  32/34/54 47/49/54 48/50/55
f  48/50/55 16/16/56 32/34/54
f  41/43/57 42/44/57 49/51/58
f  49/51/58 50/52/59 41/43/57
f  45/47/60 41/43/60 50/52/61
f  50/52/61 51/53/62 45/47/60
f  47/49/63 45/47/63 51/53/64
f  51/53/64 52/54/65 47/49/63
f  32/34/66 47/49/66 52/54/67
f  52/54/67 30/32/68 32/34/66
f  53/55/69 54/56/70 55/57/71
f  55/57/71 56/58/72 53/55/69
f  57/59/73 53/55/74 56/58/75
f  56/58/75 58/60/76 57/59/73
f  59/61/77 57/59/78 58/60/79
f  58/60/79 60/62/80 59/61/77
f  17/17/81 59/61/82 60/62/83
f  60/62/83 28/28/84 17/17/81
f  50/52/59 49/51/58 61/63/85
f  61/63/85 62/64/85 50/52/59
f  51/53/62 50/52/61 62/64/86
f  62/64/86 63/65/86 51/53/62
f  52/54/65 51/53/64 63/65/87
f  63/65/87 64/66/88 52/54/65
f  30/32/68 52/54/67 64/66/89
f  64/66/89 26/26/90 30/32/68
f  56/58/72 55/57/71 65/67/91
f  65/67/91 66/68/92 56/58/72
f  58/60/76 56/58/75 66/68/93
f  66/68/93 67/69/94 58/60/76
f  60/62/80 58/60/79 67/69/95
f  67/69/95 68/70/96 60/62/80
f  28/28/84 60/62/83 68/70/97
f  68/70/97 22/29/98 28/28/84
f  62/64/85 61/63/85 69/71/99
f  69/71/99 70/72/100 62/64/85
f  63/65/86 62/64/86 70/72/101
f  70/72/101 71/73/102 63/65/86
f  64/66/88 63/65/87 71/73/103
f  71/73/103 72/74/103 64/66/88
f  26/26/90 64/66/89 72/74/104
f  72/74/104 20/20/105 26/26/90
f  66/75/92 65/76/91 35/37/106
f  35/37/106 36/38/106 66/75/92
f  67/77/94 66/75/93 36/38/107
f  36/38/107 38/40/107 67/77/94
f  68/78/96 67/77/95 38/40/108
f  38/40/108 40/42/108 68/78/96
f  22/22/98 68/78/97 40/42/109
f  40/42/109 23/23/109 22/22/98
f  70/72/100 69/71/99 73/79/110
f  73/79/110 74/80/110 70/72/100
f  71/73/102 70/72/101 74/80/111
f  74/80/111 75/81/111 71/73/102
f  72/74/103 71/73/103 75/81/112
f  75/81/112 76/82/112 72/74/103
f  20/20/105 72/74/104 76/82/113
f  76/82/113 3/3/113 20/20/105
f  77/83/114 78/84/114 54/56/70
f  54/56/70 53/55/69 77/83/114
f  79/85/115 77/83/115 53/55/74
f  53/55/74 57/59/73 79/85/115
f  80/86/116 79/85/116 57/59/78
f  57/59/78 59/61/77 80/86/116
f  12/12/117 80/86/117 59/61/82
f  59/61/82 17/17/81 12/12/117
f  81/87/118 82/88/119 83/89/120
f  83/89/120 84/90/121 81/87/118
f  85/91/122 81/87/123 84/90/124
f  84/90/124 86/92/125 85/91/122
f  87/93/126 85/91/127 86/92/128
f  86/92/128 88/94/129 87/93/126
f  13/13/130 87/93/130 88/94/131
f  88/94/131 10/10/132 13/13/130
f  44/46/47 43/45/46 89/95/133
f  89/95/133 90/96/134 44/46/47
f  46/48/50 44/46/49 90/96/135
f  90/96/135 91/97/136 46/48/50
f  48/50/53 46/48/52 91/97/137
f  91/97/137 92/98/137 48/50/53
f  16/16/56 48/50/55 92/98/138
f  92/98/138 6/6/138 16/16/56
f  77/83/139 78/84/139 82/88/119
f  82/88/119 81/87/118 77/83/139
f  79/85/140 77/83/140 81/87/123
f  81/87/123 85/91/122 79/85/140
f  80/86/141 79/85/141 85/91/127
f  85/91/127 87/93/126 80/86/141
f  12/12/142 80/86/142 87/93/130
f  87/93/130 13/13/130 12/12/142
f  84/90/121 83/89/120 93/99/143
f  93/99/143 94/100/144 84/90/121
f  86/92/125 84/90/124 94/100/145
f  94/100/145 95/101/146 86/92/125
f  88/94/129 86/92/128 95/101/147
f  95/101/147 96/102/147 88/94/129
f  10/10/132 88/94/131 96/102/148
f  96/102/148 2/2/149 10/10/132
f  90/96/134 89/95/133 34/36/34
f  34/36/34 33/35/33 90/96/134
f  91/97/136 90/96/135 33/35/37
f  33/35/37 37/39/36 91/97/136
f  92/98/137 91/97/137 37/39/40
f  37/39/40 39/41/39 92/98/137
f  6/6/138 92/98/138 39/41/43
f  39/41/43 7/7/42 6/6/138
f  94/100/144 93/99/143 73/79/150
f  73/79/150 74/80/150 94/100/144
f  95/101/146 94/100/145 74/80/151
f  74/80/151 75/81/151 95/101/146
f  96/102/147 95/101/147 75/81/152
f  75/81/152 76/82/152 96/102/147
f  2/2/149 96/102/148 76/82/153
f  76/82/153 3/3/153 2/2/149

